<svg width="24" height="30" viewBox="0 0 24 30" fill="none" xmlns="http://www.w3.org/2000/svg">
<path id="P" d="M0.25 30V0.90909H12.8068C14.9659 0.90909 16.8551 1.33523 18.4744 2.1875C20.0938 3.03977 21.3532 4.23769 22.2528 5.78125C23.1525 7.32481 23.6023 9.12879 23.6023 11.1932C23.6023 13.2765 23.1383 15.0805 22.2102 16.6051C21.2917 18.1297 19.9991 19.304 18.3324 20.1278C16.6752 20.9517 14.7386 21.3636 12.5227 21.3636H5.02273V15.2273H10.9318C11.8598 15.2273 12.6506 15.0663 13.304 14.7443C13.9669 14.4129 14.4735 13.9441 14.8239 13.3381C15.1837 12.732 15.3636 12.017 15.3636 11.1932C15.3636 10.3598 15.1837 9.64962 14.8239 9.0625C14.4735 8.46591 13.9669 8.01136 13.304 7.69886C12.6506 7.37689 11.8598 7.21591 10.9318 7.21591H8.14773V30H0.25Z" fill="black"/>
</svg>
